<svg xmlns="http://www.w3.org/2000/svg">
  <symbol id="icon-moon" viewBox="0 0 24 24">
    <path d="M12 3c.132 0 .263 0 .393 0a7.5 7.5 0 0 0 7.92 12.446a9 9 0 1 1 -8.313 -12.454l0 .008" />
  </symbol>
  <symbol id="icon-sun" viewBox="0 0 24 24">
    <path d="M8 12a4 4 0 1 0 8 0a4 4 0 1 0 -8 0" />
    <path d="M3 12h1m8 -9v1m8 8h1m-9 8v1m-6.4 -15.4l.7 .7m12.1 -.7l-.7 .7m0 11.4l.7 .7m-12.1 -.7l-.7 .7" />
  </symbol>
  <symbol id="icon-arrow-right" viewBox="0 0 24 24">
    <path d="M5 12l14 0" />
    <path d="M13 18l6 -6" />
    <path d="M13 6l6 6" />
  </symbol>
  <symbol id="icon-copy" viewBox="0 0 24 24">
    <path d="M7 9.667a2.667 2.667 0 0 1 2.667 -2.667h8.666a2.667 2.667 0 0 1 2.667 2.667v8.666a2.667 2.667 0 0 1 -2.667 2.667h-8.666a2.667 2.667 0 0 1 -2.667 -2.667l0 -8.666" />
    <path d="M4.012 16.737a2.005 2.005 0 0 1 -1.012 -1.737v-10c0 -1.1 .9 -2 2 -2h10c.75 0 1.158 .385 1.5 1" />
  </symbol>
  <symbol id="icon-check" viewBox="0 0 24 24">
    <path d="M5 12l5 5l10 -10" />
  </symbol>
  <symbol id="icon-external-link" viewBox="0 0 24 24">
    <path d="M12 6h-6a2 2 0 0 0 -2 2v10a2 2 0 0 0 2 2h10a2 2 0 0 0 2 -2v-6" />
    <path d="M11 13l9 -9" />
    <path d="M15 4h5v5" />
  </symbol>
  <symbol id="icon-users" viewBox="0 0 24 24">
    <path d="M5 7a4 4 0 1 0 8 0a4 4 0 1 0 -8 0" />
    <path d="M3 21v-2a4 4 0 0 1 4 -4h4a4 4 0 0 1 4 4v2" />
    <path d="M16 3.13a4 4 0 0 1 0 7.75" />
    <path d="M21 21v-2a4 4 0 0 0 -3 -3.85" />
  </symbol>
  <symbol id="icon-layout-dashboard" viewBox="0 0 24 24">
    <path d="M5 4h4a1 1 0 0 1 1 1v6a1 1 0 0 1 -1 1h-4a1 1 0 0 1 -1 -1v-6a1 1 0 0 1 1 -1" />
    <path d="M5 16h4a1 1 0 0 1 1 1v2a1 1 0 0 1 -1 1h-4a1 1 0 0 1 -1 -1v-2a1 1 0 0 1 1 -1" />
    <path d="M15 12h4a1 1 0 0 1 1 1v6a1 1 0 0 1 -1 1h-4a1 1 0 0 1 -1 -1v-6a1 1 0 0 1 1 -1" />
    <path d="M15 4h4a1 1 0 0 1 1 1v2a1 1 0 0 1 -1 1h-4a1 1 0 0 1 -1 -1v-2a1 1 0 0 1 1 -1" />
  </symbol>
  <symbol id="icon-photo" viewBox="0 0 24 24">
    <path d="M15 8h.01" />
    <path d="M3 6a3 3 0 0 1 3 -3h12a3 3 0 0 1 3 3v12a3 3 0 0 1 -3 3h-12a3 3 0 0 1 -3 -3v-12" />
    <path d="M3 16l5 -5c.928 -.893 2.072 -.893 3 0l5 5" />
    <path d="M14 14l1 -1c.928 -.893 2.072 -.893 3 0l3 3" />
  </symbol>
  <symbol id="icon-bolt" viewBox="0 0 24 24">
    <path d="M13 3l0 7l6 0l-8 11l0 -7l-6 0l8 -11" />
  </symbol>

  <symbol id="icon-brand-x" viewBox="0 0 24 24">
    <path d="M14.234 10.162 22.977 0h-2.072l-7.591 8.824L7.251 0H.258l9.168 13.343L.258 24H2.33l8.016-9.318L16.749 24h6.993zm-2.837 3.299-.929-1.329L3.076 1.56h3.182l5.965 8.532.929 1.329 7.754 11.09h-3.182z" />
  </symbol>
  <symbol id="icon-brand-github" viewBox="0 0 24 24">
    <path d="M12 .297c-6.63 0-12 5.373-12 12 0 5.303 3.438 9.8 8.205 11.385.6.113.82-.258.82-.577 0-.285-.01-1.04-.015-2.04-3.338.724-4.042-1.61-4.042-1.61C4.422 18.07 3.633 17.7 3.633 17.7c-1.087-.744.084-.729.084-.729 1.205.084 1.838 1.236 1.838 1.236 1.07 1.835 2.809 1.305 3.495.998.108-.776.417-1.305.76-1.605-2.665-.3-5.466-1.332-5.466-5.93 0-1.31.465-2.38 1.235-3.22-.135-.303-.54-1.523.105-3.176 0 0 1.005-.322 3.3 1.23.96-.267 1.98-.399 3-.405 1.02.006 2.04.138 3 .405 2.28-1.552 3.285-1.23 3.285-1.23.645 1.653.24 2.873.12 3.176.765.84 1.23 1.91 1.23 3.22 0 4.61-2.805 5.625-5.475 5.92.42.36.81 1.096.81 2.22 0 1.606-.015 2.896-.015 3.286 0 .315.21.69.825.57C20.565 22.092 24 17.592 24 12.297c0-6.627-5.373-12-12-12" />
  </symbol>
  <symbol id="icon-brand-reddit" viewBox="0 0 24 24">
    <path d="M12 0C5.373 0 0 5.373 0 12c0 3.314 1.343 6.314 3.515 8.485l-2.286 2.286C.775 23.225 1.097 24 1.738 24H12c6.627 0 12-5.373 12-12S18.627 0 12 0Zm4.388 3.199c1.104 0 1.999.895 1.999 1.999 0 1.105-.895 2-1.999 2-.946 0-1.739-.657-1.947-1.539v.002c-1.147.162-2.032 1.15-2.032 2.341v.007c1.776.067 3.4.567 4.686 1.363.473-.363 1.064-.58 1.707-.58 1.547 0 2.802 1.254 2.802 2.802 0 1.117-.655 2.081-1.601 2.531-.088 3.256-3.637 5.876-7.997 5.876-4.361 0-7.905-2.617-7.998-5.87-.954-.447-1.614-1.415-1.614-2.538 0-1.548 1.255-2.802 2.803-2.802.645 0 1.239.218 1.712.585 1.275-.79 2.881-1.291 4.64-1.365v-.01c0-1.663 1.263-3.034 2.88-3.207.188-.911.993-1.595 1.959-1.595Zm-8.085 8.376c-.784 0-1.459.78-1.506 1.797-.047 1.016.64 1.429 1.426 1.429.786 0 1.371-.369 1.418-1.385.047-1.017-.553-1.841-1.338-1.841Zm7.406 0c-.786 0-1.385.824-1.338 1.841.047 1.017.634 1.385 1.418 1.385.785 0 1.473-.413 1.426-1.429-.046-1.017-.721-1.797-1.506-1.797Zm-3.703 4.013c-.974 0-1.907.048-2.77.135-.147.015-.241.168-.183.305.483 1.154 1.622 1.964 2.953 1.964 1.33 0 2.47-.81 2.953-1.964.057-.137-.037-.29-.184-.305-.863-.087-1.795-.135-2.769-.135Z" />
  </symbol>
  <symbol id="icon-brand-discord" viewBox="0 0 24 24">
    <path d="M20.317 4.3698a19.7913 19.7913 0 00-4.8851-1.5152.0741.0741 0 00-.0785.0371c-.211.3753-.4447.8648-.6083 1.2495-1.8447-.2762-3.68-.2762-5.4868 0-.1636-.3933-.4058-.8742-.6177-1.2495a.077.077 0 00-.0785-.037 19.7363 19.7363 0 00-4.8852 1.515.0699.0699 0 00-.0321.0277C.5334 9.0458-.319 13.5799.0992 18.0578a.0824.0824 0 00.0312.0561c2.0528 1.5076 4.0413 2.4228 5.9929 3.0294a.0777.0777 0 00.0842-.0276c.4616-.6304.8731-1.2952 1.226-1.9942a.076.076 0 00-.0416-.1057c-.6528-.2476-1.2743-.5495-1.8722-.8923a.077.077 0 01-.0076-.1277c.1258-.0943.2517-.1923.3718-.2914a.0743.0743 0 01.0776-.0105c3.9278 1.7933 8.18 1.7933 12.0614 0a.0739.0739 0 01.0785.0095c.1202.099.246.1981.3728.2924a.077.077 0 01-.0066.1276 12.2986 12.2986 0 01-1.873.8914.0766.0766 0 00-.0407.1067c.3604.698.7719 1.3628 1.225 1.9932a.076.076 0 00.0842.0286c1.961-.6067 3.9495-1.5219 6.0023-3.0294a.077.077 0 00.0313-.0552c.5004-5.177-.8382-9.6739-3.5485-13.6604a.061.061 0 00-.0312-.0286zM8.02 15.3312c-1.1825 0-2.1569-1.0857-2.1569-2.419 0-1.3332.9555-2.4189 2.157-2.4189 1.2108 0 2.1757 1.0952 2.1568 2.419 0 1.3332-.9555 2.4189-2.1569 2.4189zm7.9748 0c-1.1825 0-2.1569-1.0857-2.1569-2.419 0-1.3332.9554-2.4189 2.1569-2.4189 1.2108 0 2.1757 1.0952 2.1568 2.419 0 1.3332-.946 2.4189-2.1568 2.4189Z" />
  </symbol>
  <symbol id="icon-brand-twitch" viewBox="0 0 24 24">
    <path d="M11.571 4.714h1.715v5.143H11.57zm4.715 0H18v5.143h-1.714zM6 0L1.714 4.286v15.428h5.143V24l4.286-4.286h3.428L22.286 12V0zm14.571 11.143l-3.428 3.428h-3.429l-3 3v-3H6.857V1.714h13.714Z" />
  </symbol>
  <symbol id="icon-brand-youtube" viewBox="0 0 24 24">
    <path d="M23.498 6.186a3.016 3.016 0 0 0-2.122-2.136C19.505 3.545 12 3.545 12 3.545s-7.505 0-9.377.505A3.017 3.017 0 0 0 .502 6.186C0 8.07 0 12 0 12s0 3.93.502 5.814a3.016 3.016 0 0 0 2.122 2.136c1.871.505 9.376.505 9.376.505s7.505 0 9.377-.505a3.015 3.015 0 0 0 2.122-2.136C24 15.93 24 12 24 12s0-3.93-.502-5.814zM9.545 15.568V8.432L15.818 12l-6.273 3.568z" />
  </symbol>
  <symbol id="icon-brand-tiktok" viewBox="0 0 24 24">
    <path d="M12.525.02c1.31-.02 2.61-.01 3.91-.02.08 1.53.63 3.09 1.75 4.17 1.12 1.11 2.7 1.62 4.24 1.79v4.03c-1.44-.05-2.89-.35-4.2-.97-.57-.26-1.1-.59-1.62-.93-.01 2.92.01 5.84-.02 8.75-.08 1.4-.54 2.79-1.35 3.94-1.31 1.92-3.58 3.17-5.91 3.21-1.43.08-2.86-.31-4.08-1.03-2.02-1.19-3.44-3.37-3.65-5.71-.02-.5-.03-1-.01-1.49.18-1.9 1.12-3.72 2.58-4.96 1.66-1.44 3.98-2.13 6.15-1.72.02 1.48-.04 2.96-.04 4.44-.99-.32-2.15-.23-3.02.37-.63.41-1.11 1.04-1.36 1.75-.21.51-.15 1.07-.14 1.61.24 1.64 1.82 3.02 3.5 2.87 1.12-.01 2.19-.66 2.77-1.61.19-.33.4-.67.41-1.06.1-1.79.06-3.57.07-5.36.01-4.03-.01-8.05.02-12.07z" />
  </symbol>
  <symbol id="icon-brand-steam" viewBox="0 0 24 24">
    <path d="M11.979 0C5.678 0 .511 4.86.022 11.037l6.432 2.658c.545-.371 1.203-.59 1.912-.59.063 0 .125.004.188.006l2.861-4.142V8.91c0-2.495 2.028-4.524 4.524-4.524 2.494 0 4.524 2.031 4.524 4.527s-2.03 4.525-4.524 4.525h-.105l-4.076 2.911c0 .052.004.105.004.159 0 1.875-1.515 3.396-3.39 3.396-1.635 0-3.016-1.173-3.331-2.727L.436 15.27C1.862 20.307 6.486 24 11.979 24c6.627 0 11.999-5.373 11.999-12S18.605 0 11.979 0zM7.54 18.21l-1.473-.61c.262.543.714.999 1.314 1.25 1.297.539 2.793-.076 3.332-1.375.263-.63.264-1.319.005-1.949s-.75-1.121-1.377-1.383c-.624-.26-1.29-.249-1.878-.03l1.523.63c.956.4 1.409 1.5 1.009 2.455-.397.957-1.497 1.41-2.454 1.012H7.54zm11.415-9.303c0-1.662-1.353-3.015-3.015-3.015-1.665 0-3.015 1.353-3.015 3.015 0 1.665 1.35 3.015 3.015 3.015 1.663 0 3.015-1.35 3.015-3.015zm-5.273-.005c0-1.252 1.013-2.266 2.265-2.266 1.249 0 2.266 1.014 2.266 2.266 0 1.251-1.017 2.265-2.266 2.265-1.253 0-2.265-1.014-2.265-2.265z" />
  </symbol>
  <symbol id="icon-brand-osu" viewBox="0 0 24 24">
    <path d="M7.698 10.362c-.1855-.2184-.4189-.3905-.7002-.5162-.2813-.1257-.6104-.1885-.9874-.1885s-.7046.0628-.9829.1885-.5088.2978-.6912.5162c-.1827.2185-.3203.4773-.413.7765-.0928.2993-.1391.6194-.1391.9605 0 .3412.0463.6584.1391.9516.0927.2933.2303.5491.413.7675.1824.2185.4129.3891.6912.5116.2783.1226.6059.1841.9829.1841s.7061-.0615.9875-.1841c.2813-.1226.5146-.2931.7002-.5116.1855-.2184.3231-.4742.413-.7675.0897-.2931.1346-.6104.1346-.9516 0-.3411-.0449-.6612-.1346-.9605-.0899-.2992-.2276-.558-.4131-.7765zm-.965 2.8096c-.1467.2484-.3875.3725-.7227.3725-.3291 0-.567-.1241-.7136-.3725-.1467-.2483-.2199-.6059-.2199-1.0727s.0732-.8243.2199-1.0727c.1466-.2482.3844-.3725.7136-.3725.3352 0 .5759.1243.7227.3725.1466.2484.2199.6059.2199 1.0727.0001.4668-.0733.8245-.2199 1.0727zm11.8894-.8303-.0898-4.3896a4.5409 4.5409 0 0 1 .6912-.0539c.2334 0 .4668.0179.7002.0539l-.0898 4.3896c-.2096.0359-.41.0538-.6015.0538a3.4957 3.4957 0 0 1-.6103-.0538zm1.3196 1.4003c0 .2215-.0179.443-.0538.6643a4.2055 4.2055 0 0 1-.6553.0538 4.1414 4.1414 0 0 1-.6642-.0538 4.0882 4.0882 0 0 1-.0539-.6553c0-.2154.018-.4367.0539-.6643a4.0876 4.0876 0 0 1 .6552-.0538c.2155 0 .4368.018.6643.0538.0359.2276.0538.446.0538.6553zm-3.2226-4.0305c.2095 0 .422.018.6373.0539v4.4614c-.1916.0659-.4443.1302-.7585.193-.3141.0629-.6418.0943-.9829.0943-.3052 0-.5985-.024-.8798-.0718-.2813-.0479-.5282-.1495-.7405-.3052-.2125-.1555-.3815-.3829-.5072-.6823-.1257-.2991-.1885-.697-.1885-1.1938V9.765a3.8725 3.8725 0 0 1 .6373-.0539c.2094 0 .4219.018.6373.0539v2.4596c0 .2455.0194.4474.0584.6059.0388.1586.0988.2843.1795.377a.6606.6606 0 0 0 .3007.1974c.1197.0391.2603.0584.4219.0584.2214 0 .407-.0209.5566-.0628V9.765a3.8218 3.8218 0 0 1 .6284-.0539zm-4.3625 2.6841c.0538.1497.0808.3321.0808.5476 0 .2215-.0464.428-.1392.6194-.0928.1916-.2274.3577-.4039.4982-.1766.1407-.3905.2514-.6418.3322-.2514.0808-.5356.1212-.8528.1212a5.2984 5.2984 0 0 1-.395-.0135 3.1226 3.1226 0 0 1-.3456-.0448 4.0482 4.0482 0 0 1-.3277-.0763 3.9336 3.9336 0 0 1-.35-.1166 2.5768 2.5768 0 0 1 .0852-.4893 3.0737 3.0737 0 0 1 .1751-.4802c.1975.0779.3844.1362.561.1751.1765.039.3605.0584.5521.0584.0838 0 .175-.0075.2738-.0225a.9945.9945 0 0 0 .2737-.0808.6467.6467 0 0 0 .2109-.1526c.0569-.0628.0853-.145.0853-.2469 0-.1436-.0434-.2469-.1302-.3097-.0868-.0628-.208-.1181-.3636-.1661l-.5565-.1616c-.3352-.0956-.5969-.2379-.7855-.4263-.1885-.1886-.2827-.4713-.2827-.8484 0-.4547.163-.8108.4892-1.0682.3261-.2573.7705-.386 1.333-.386.2334 0 .4638.0211.6913.0629.2273.0419.4578.1048.6912.1885-.012.1557-.0419.3173-.0897.4847-.048.1676-.1048.3142-.1706.4398a3.58 3.58 0 0 0-.4757-.1571 2.18 2.18 0 0 0-.5477-.0673c-.2034 0-.3621.0314-.4758.0943-.1137.0629-.1705.1631-.1705.3007 0 .1317.0403.2244.1211.2783.0809.0538.1959.1048.3456.1526l.5117.1526c.1675.048.3187.1063.4533.1751.1347.0688.2498.1541.3456.2558.0958.1016.1707.2272.2246.3768zM12 0C5.3726 0 0 5.3726 0 12.0001 0 18.6273 5.3726 24 12 24c6.6275 0 12-5.3727 12-11.9999C24 5.3726 18.6275 0 12 0zm0 22.8c-5.9647 0-10.8-4.8354-10.8-10.7999C1.2 6.0353 6.0353 1.2 12 1.2s10.8 4.8353 10.8 10.8001C22.8 17.9646 17.9647 22.8 12 22.8z" />
  </symbol>
  <symbol id="icon-brand-riotgames" viewBox="0 0 24 24">
    <path d="M13.458.86 0 7.093l3.353 12.761 2.552-.313-.701-8.024.838-.373 1.447 8.202 4.361-.535-.775-8.857.83-.37 1.591 9.025 4.412-.542-.849-9.708.84-.374 1.74 9.87L24 17.318V3.5Zm.316 19.356.222 1.256L24 23.14v-4.18l-10.22 1.256Z" />
  </symbol>
</svg>
